<mxfile host="app.diagrams.net" agent="Mozilla/5.0 (Windows NT 10.0; Win64; x64) AppleWebKit/537.36 (KHTML, like Gecko) Chrome/130.0.0.0 Safari/537.36" version="26.2.14">
  <diagram name="Page-1" id="_OUf8qHNS7iJfWCIvuO8">
    <mxGraphModel dx="1042" dy="535" grid="1" gridSize="10" guides="1" tooltips="1" connect="1" arrows="1" fold="1" page="1" pageScale="1" pageWidth="827" pageHeight="1169" math="0" shadow="0">
      <root>
        <mxCell id="0" />
        <mxCell id="1" parent="0" />
        <mxCell id="gif6xpA_anRQ9MToPiW7-1" value="" style="rounded=0;whiteSpace=wrap;html=1;" vertex="1" parent="1">
          <mxGeometry x="70" y="70" width="670" height="390" as="geometry" />
        </mxCell>
        <mxCell id="gif6xpA_anRQ9MToPiW7-2" value="region :mumbai" style="text;html=1;align=center;verticalAlign=middle;resizable=0;points=[];autosize=1;strokeColor=none;fillColor=none;strokeWidth=3;fontSize=19;" vertex="1" parent="1">
          <mxGeometry x="105" y="33" width="150" height="40" as="geometry" />
        </mxCell>
        <mxCell id="gif6xpA_anRQ9MToPiW7-5" value="VPC" style="sketch=0;outlineConnect=0;gradientColor=none;html=1;whiteSpace=wrap;fontSize=12;fontStyle=0;shape=mxgraph.aws4.group;grIcon=mxgraph.aws4.group_vpc;strokeColor=#190033;fillColor=none;verticalAlign=top;align=left;spacingLeft=30;fontColor=#879196;dashed=1;dashPattern=8 8;strokeWidth=2;perimeterSpacing=6;" vertex="1" parent="1">
          <mxGeometry x="130" y="120" width="550" height="310" as="geometry" />
        </mxCell>
        <mxCell id="gif6xpA_anRQ9MToPiW7-8" value="Availability Zone" style="fillColor=none;strokeColor=#147EBA;dashed=1;verticalAlign=top;fontStyle=0;fontColor=#147EBA;whiteSpace=wrap;html=1;shadow=1;glass=0;rounded=0;" vertex="1" parent="1">
          <mxGeometry x="140" y="150" width="170" height="270" as="geometry" />
        </mxCell>
        <mxCell id="gif6xpA_anRQ9MToPiW7-10" value="Availability Zone" style="fillColor=none;strokeColor=#147EBA;dashed=1;verticalAlign=top;fontStyle=0;fontColor=#147EBA;whiteSpace=wrap;html=1;" vertex="1" parent="1">
          <mxGeometry x="530" y="170" width="130" height="210" as="geometry" />
        </mxCell>
        <mxCell id="gif6xpA_anRQ9MToPiW7-13" value="fresh" style="text;html=1;align=center;verticalAlign=middle;whiteSpace=wrap;rounded=0;fontSize=16;" vertex="1" parent="1">
          <mxGeometry x="180" y="120" width="60" height="30" as="geometry" />
        </mxCell>
        <mxCell id="gif6xpA_anRQ9MToPiW7-14" value="1" style="text;html=1;align=center;verticalAlign=middle;whiteSpace=wrap;rounded=0;" vertex="1" parent="1">
          <mxGeometry x="260" y="150" width="60" height="30" as="geometry" />
        </mxCell>
        <mxCell id="gif6xpA_anRQ9MToPiW7-17" value="3" style="text;html=1;align=center;verticalAlign=middle;whiteSpace=wrap;rounded=0;fontSize=16;" vertex="1" parent="1">
          <mxGeometry x="620" y="170" width="60" height="30" as="geometry" />
        </mxCell>
        <mxCell id="gif6xpA_anRQ9MToPiW7-18" value="Subnet" style="sketch=0;outlineConnect=0;gradientColor=none;html=1;whiteSpace=wrap;fontSize=12;fontStyle=0;shape=mxgraph.aws4.group;grIcon=mxgraph.aws4.group_subnet;strokeColor=#879196;fillColor=none;verticalAlign=top;align=left;spacingLeft=30;fontColor=#879196;dashed=0;" vertex="1" parent="1">
          <mxGeometry x="170" y="180" width="130" height="80" as="geometry" />
        </mxCell>
        <mxCell id="gif6xpA_anRQ9MToPiW7-19" value="Subnet" style="sketch=0;outlineConnect=0;gradientColor=none;html=1;whiteSpace=wrap;fontSize=12;fontStyle=0;shape=mxgraph.aws4.group;grIcon=mxgraph.aws4.group_subnet;strokeColor=#879196;fillColor=none;verticalAlign=top;align=left;spacingLeft=30;fontColor=#879196;dashed=0;" vertex="1" parent="1">
          <mxGeometry x="170" y="290" width="130" height="100" as="geometry" />
        </mxCell>
        <mxCell id="gif6xpA_anRQ9MToPiW7-21" value="" style="sketch=0;outlineConnect=0;fontColor=#232F3E;gradientColor=none;fillColor=#8C4FFF;strokeColor=none;dashed=0;verticalLabelPosition=bottom;verticalAlign=top;align=center;html=1;fontSize=12;fontStyle=0;aspect=fixed;pointerEvents=1;shape=mxgraph.aws4.internet_gateway;" vertex="1" parent="1">
          <mxGeometry x="542" y="102" width="48" height="48" as="geometry" />
        </mxCell>
        <mxCell id="gif6xpA_anRQ9MToPiW7-23" style="edgeStyle=orthogonalEdgeStyle;rounded=0;orthogonalLoop=1;jettySize=auto;html=1;jumpSize=12;flowAnimation=1;strokeColor=#FF3333;strokeWidth=2;" edge="1" parent="1">
          <mxGeometry relative="1" as="geometry">
            <mxPoint x="350" y="125" as="sourcePoint" />
            <mxPoint x="552" y="145" as="targetPoint" />
            <Array as="points">
              <mxPoint x="470" y="145" />
              <mxPoint x="470" y="145" />
            </Array>
          </mxGeometry>
        </mxCell>
        <mxCell id="gif6xpA_anRQ9MToPiW7-22" value="Route table" style="sketch=0;outlineConnect=0;fontColor=#232F3E;gradientColor=none;strokeColor=#232F3E;fillColor=#ffffff;dashed=0;verticalLabelPosition=bottom;verticalAlign=top;align=center;html=1;fontSize=12;fontStyle=1;aspect=fixed;shape=mxgraph.aws4.resourceIcon;resIcon=mxgraph.aws4.route_table;" vertex="1" parent="1">
          <mxGeometry x="320" y="80" width="60" height="60" as="geometry" />
        </mxCell>
        <mxCell id="gif6xpA_anRQ9MToPiW7-26" value="&lt;b&gt;DB&lt;/b&gt;&lt;div&gt;&lt;b&gt;subnet -2&lt;/b&gt;&lt;/div&gt;&lt;div&gt;&lt;b&gt;10.0.2.0/24&lt;/b&gt;&lt;/div&gt;" style="text;html=1;align=center;verticalAlign=middle;whiteSpace=wrap;rounded=0;" vertex="1" parent="1">
          <mxGeometry x="240" y="300" width="60" height="30" as="geometry" />
        </mxCell>
        <mxCell id="gif6xpA_anRQ9MToPiW7-28" value="&lt;b&gt;web&lt;/b&gt;&lt;div&gt;&lt;b&gt;subnet-1&lt;/b&gt;&lt;/div&gt;&lt;div&gt;&lt;b&gt;10.0.1.0./24&lt;/b&gt;&lt;/div&gt;" style="text;html=1;align=center;verticalAlign=middle;whiteSpace=wrap;rounded=0;" vertex="1" parent="1">
          <mxGeometry x="230" y="190" width="60" height="30" as="geometry" />
        </mxCell>
        <mxCell id="gif6xpA_anRQ9MToPiW7-29" value="" style="outlineConnect=0;dashed=0;verticalLabelPosition=bottom;verticalAlign=top;align=center;html=1;shape=mxgraph.aws3.ec2;fillColor=#F58534;gradientColor=none;" vertex="1" parent="1">
          <mxGeometry x="180" y="210" width="40" height="40" as="geometry" />
        </mxCell>
        <mxCell id="gif6xpA_anRQ9MToPiW7-31" value="" style="outlineConnect=0;dashed=0;verticalLabelPosition=bottom;verticalAlign=top;align=center;html=1;shape=mxgraph.aws3.ec2;fillColor=#F58534;gradientColor=none;" vertex="1" parent="1">
          <mxGeometry x="190" y="323" width="40" height="50" as="geometry" />
        </mxCell>
        <mxCell id="gif6xpA_anRQ9MToPiW7-33" value="Availability Zone" style="fillColor=none;strokeColor=#147EBA;dashed=1;verticalAlign=top;fontStyle=0;fontColor=#147EBA;whiteSpace=wrap;html=1;" vertex="1" parent="1">
          <mxGeometry x="350" y="180" width="130" height="210" as="geometry" />
        </mxCell>
        <mxCell id="gif6xpA_anRQ9MToPiW7-35" value="2" style="text;html=1;align=center;verticalAlign=middle;whiteSpace=wrap;rounded=0;" vertex="1" parent="1">
          <mxGeometry x="440" y="180" width="60" height="30" as="geometry" />
        </mxCell>
        <mxCell id="gif6xpA_anRQ9MToPiW7-36" value="&lt;b&gt;&lt;font style=&quot;font-size: 14px;&quot;&gt;10.0.0.0/16&lt;/font&gt;&lt;/b&gt;" style="text;html=1;align=center;verticalAlign=middle;whiteSpace=wrap;rounded=0;" vertex="1" parent="1">
          <mxGeometry x="90" y="90" width="170" height="30" as="geometry" />
        </mxCell>
        <mxCell id="gif6xpA_anRQ9MToPiW7-42" style="edgeStyle=orthogonalEdgeStyle;rounded=0;orthogonalLoop=1;jettySize=auto;html=1;flowAnimation=1;strokeColor=#FF0000;strokeWidth=3;" edge="1" parent="1" source="gif6xpA_anRQ9MToPiW7-22" target="gif6xpA_anRQ9MToPiW7-18">
          <mxGeometry relative="1" as="geometry" />
        </mxCell>
      </root>
    </mxGraphModel>
  </diagram>
</mxfile>
